<?xml version="1.0" encoding="utf-8"?>
<!-- Generator: Adobe Illustrator 24.0.1, SVG Export Plug-In . SVG Version: 6.00 Build 0)  -->
<svg version="1.1" id="Capa_1" xmlns="http://www.w3.org/2000/svg" xmlns:xlink="http://www.w3.org/1999/xlink" x="0px" y="0px"
	 viewBox="0 0 40 60" style="enable-background:new 0 0 40 60;" xml:space="preserve">
<style type="text/css">
	.st0{fill:#FFFFFF;}
</style>
<g>
	<path class="st0" d="M33.3,37.4v-3.4c0-0.3-0.3-0.6-0.6-0.6s-0.6,0.3-0.6,0.6v3.4c-3.2,0.3-5.8,3-5.8,6.4c0,2.1,1.1,4,2.7,5.2h-5.7
		c-1.5,0-2.9-0.7-3.9-1.8c-1-1.2-1.3-2.7-1.1-4.1l1.1-6h6.2c1.2,0,2.2-1,2.2-2.2v-7.8c0.8-0.2,1.6-0.3,2.5-0.3c1,0,1.7,0.8,1.7,1.7
		v3.2c0,0.3,0.3,0.6,0.6,0.6c0.3,0,0.6-0.3,0.6-0.6v-3.2c0-1.2-0.7-2.2-1.7-2.7v-3.1c0-0.3-0.3-0.6-0.6-0.6h0v-8
		c0-2.4-1.9-4.3-4.3-4.3c-1.7,0-3.3,1-4,2.6l-3.4,7.5c-0.1,0.3,0,0.6,0.3,0.8c0.3,0.1,0.6,0,0.8-0.3l3.4-7.5
		c0.5-1.1,1.6-1.9,2.9-1.9c1.7,0,3.1,1.4,3.1,3.1v8h-1.2v-8c0-1.1-0.9-2-2-2c-0.8,0-1.5,0.5-1.8,1.2L11.3,43.6H10l9.4-21.1
		c0.1-0.3,0-0.6-0.3-0.8c-0.3-0.1-0.6,0-0.8,0.3L8.7,43.6H8.4C7.7,43.6,7,44.3,7,45v1.2H5c-1.9,0-3.6,1.3-4.1,3.2
		c0,0.2,0,0.4,0.1,0.5c0.1,0.1,0.3,0.2,0.5,0.2h9.3c0.3,0,0.6-0.3,0.6-0.6c0-0.3-0.3-0.6-0.6-0.6H2.4C2.9,48,3.9,47.4,5,47.4h10
		c0.8,0,1.6,0.6,1.8,1.4l0,0.2h-3.7c-0.3,0-0.6,0.3-0.6,0.6s0.3,0.6,0.6,0.6h4.5c0.2,0,0.4-0.1,0.5-0.2c0.1-0.1,0.2-0.3,0.1-0.5
		L18,48.5c-0.3-1.3-1.6-2.3-2.9-2.3h-1.3V45c0-0.7-0.5-1.2-1.1-1.4l13.3-29.8c0.1-0.3,0.4-0.5,0.7-0.5c0.4,0,0.8,0.3,0.8,0.8v8h-0.1
		c-0.3,0-0.6,0.3-0.6,0.6v3.5c-4.1,1.3-7.3,4.8-8.1,9.2l-1.4,7.4c-0.3,1.8,0.1,3.7,1.3,5.1c1.2,1.4,2.9,2.2,4.8,2.2h9.4
		c3.5,0,6.4-2.9,6.4-6.4C39.1,40.5,36.6,37.7,33.3,37.4z M8.2,46.3V45c0-0.1,0.1-0.2,0.2-0.2h4c0.1,0,0.2,0.1,0.2,0.2v1.2H8.2z
		 M27.9,23.3h2.5v2.3c-0.8,0-1.7,0.1-2.5,0.3V23.3z M26.7,27.4v7.5c0,0.5-0.4,1-1,1h-6l0.1-0.3C20.5,31.8,23.2,28.7,26.7,27.4
		L26.7,27.4z M32.7,49c-2.9,0-5.2-2.3-5.2-5.2c0-2.9,2.3-5.2,5.2-5.2s5.2,2.3,5.2,5.2C37.9,46.7,35.6,49,32.7,49z"/>
	<path class="st0" d="M32.7,41.1c-1.5,0-2.7,1.2-2.7,2.7c0,1.5,1.2,2.7,2.7,2.7c1.5,0,2.7-1.2,2.7-2.7
		C35.4,42.3,34.2,41.1,32.7,41.1z M32.7,45.3c-0.8,0-1.5-0.7-1.5-1.5c0-0.8,0.7-1.5,1.5-1.5c0.8,0,1.5,0.7,1.5,1.5
		C34.2,44.6,33.5,45.3,32.7,45.3z"/>
</g>
</svg>
