<?xml version="1.0" encoding="utf-8"?>
<!-- Generator: Adobe Illustrator 24.0.1, SVG Export Plug-In . SVG Version: 6.00 Build 0)  -->
<svg version="1.1" id="Capa_1" xmlns="http://www.w3.org/2000/svg" xmlns:xlink="http://www.w3.org/1999/xlink" x="0px" y="0px"
	 viewBox="0 0 40 60" style="enable-background:new 0 0 40 60;" xml:space="preserve">
<style type="text/css">
	.st0{fill:#FFFFFF;}
</style>
<path id="XMLID_3_" class="st0" d="M26.9,27c1-0.4,2.1-0.2,3.3,0.1c0.8,0.2,1.6,0.3,2.4,0.3c1.2,0,2.3-0.3,3.4-1
	c1.7-1,2.8-2.9,3.1-4.9c0.3-2.3-0.6-4.7-2.5-6.6c-1.9-1.9-4.4-2.9-7-2.9c-2.7,0-5.3,1.1-7.2,3c-2.4,2.4-4,6.3-4,9.8
	c-0.6-0.4-1.1-0.9-1.3-1.7c-0.4-1.2-0.2-2.1,0.1-3.3c0.3-1.6,0.8-3.5-0.6-5.8c-1.2-1.9-3.4-3.1-5.8-3.1c-2.1,0-4.1,0.9-5.7,2.5
	C1,17.3,1.1,23.7,5,27.6c2.4,2.4,6.3,4,9.8,4c-0.4,0.6-0.9,1.1-1.7,1.3c-1,0.4-2.1,0.2-3.3-0.1c-0.8-0.2-1.6-0.3-2.4-0.3
	c-1.2,0-2.3,0.3-3.4,1c-1.7,1-2.8,2.9-3.1,4.9c-0.3,2.3,0.6,4.7,2.5,6.5c1.9,1.9,4.4,2.9,7,2.9c2.7,0,5.3-1.1,7.2-3
	c2.4-2.4,4-6.3,4-9.8c0.6,0.4,1.1,0.9,1.3,1.7c0.4,1.2,0.2,2.1-0.1,3.3c-0.3,1.6-0.8,3.5,0.6,5.8c1.2,1.9,3.4,3.1,5.8,3.1
	c2.1,0,4.1-0.9,5.7-2.5c3.9-3.9,3.8-10.3-0.1-14.2c-2.4-2.4-6.3-4-9.8-4C25.6,27.8,26.1,27.3,26.9,27z M21.6,31.6
	c-0.9,0.9-2.4,0.9-3.3,0c-0.9-0.9-0.9-2.4,0-3.3c0.4-0.4,1-0.7,1.6-0.7s1.2,0.2,1.6,0.7C22.5,29.3,22.5,30.7,21.6,31.6z"/>
</svg>
