<?xml version="1.0" encoding="utf-8"?>
<!-- Generator: Adobe Illustrator 24.0.1, SVG Export Plug-In . SVG Version: 6.00 Build 0)  -->
<svg version="1.1" id="Capa_1" xmlns="http://www.w3.org/2000/svg" xmlns:xlink="http://www.w3.org/1999/xlink" x="0px" y="0px"
	 viewBox="0 0 40 60" style="enable-background:new 0 0 40 60;" xml:space="preserve">
<style type="text/css">
	.st0{fill:#FFFFFF;}
</style>
<path class="st0" d="M19.8,12.1c-2.9,0-5.6,1.2-7.6,3.2c-2,2-3.2,4.8-3.2,7.6c0,2.9,1.1,5.6,3.1,7.7c1.4,1.4,2.3,3.2,2.5,5.1h10.7
	c0.2-1.9,1.1-3.7,2.5-5.1c2-2.1,3.1-4.8,3.1-7.7c0-3-1.2-5.7-3.3-7.8C25.6,13.2,22.8,12,19.8,12.1L19.8,12.1z"/>
<path class="st0" d="M14.7,38.2h10.5v2.5H14.7V38.2z"/>
<path class="st0" d="M14.7,43.1c0.2,2.7,2.5,4.8,5.3,4.8c2.8,0,5-2.1,5.3-4.8H14.7z"/>
</svg>
